{
  "accessors": [
    {
      "bufferView": 2,
      "componentType": 5126,
      "count": 475,
      "max": [
        2.352121591567993,
        0.917813777923584,
        1.0
      ],
      "min": [
        -3.3005270957946777,
        -2.423368453979492,
        -1.0
      ],
      "type": "VEC3"
    },
    {
      "bufferView": 2,
      "byteOffset": 5700,
      "componentType": 5126,
      "count": 475,
      "max": [
        1.0,
        1.0,
        1.0
      ],
      "min": [
        -1.0,
        -1.0,
        -1.0
      ],
      "type": "VEC3"
    },
    {
      "bufferView": 1,
      "componentType": 5126,
      "count": 475,
      "max": [
        0.8750000596046448,
        1.0
      ],
      "min": [
        0.125,
        0.0
      ],
      "type": "VEC2"
    },
    {
      "bufferView": 0,
      "componentType": 5125,
      "count": 855,
      "type": "SCALAR"
    },
    {
      "bufferView": 2,
      "byteOffset": 11400,
      "componentType": 5126,
      "count": 32,
      "max": [
        0.03779495507478714,
        0.6252809762954712,
        0.10911465436220169
      ],
      "min": [
        3.080349415540695e-06,
        -0.1311071664094925,
        -0.10911459475755692
      ],
      "type": "VEC3"
    },
    {
      "bufferView": 2,
      "byteOffset": 11784,
      "componentType": 5126,
      "count": 32,
      "max": [
        0.7432429194450378,
        0.6227641701698303,
        0.24445100128650665
      ],
      "min": [
        -1.0,
        -0.6227636337280273,
        -0.24445116519927979
      ],
      "type": "VEC3"
    },
    {
      "bufferView": 1,
      "byteOffset": 3800,
      "componentType": 5126,
      "count": 32,
      "max": [
        1.0,
        1.0
      ],
      "min": [
        0.0,
        0.01000000536441803
      ],
      "type": "VEC2"
    },
    {
      "bufferView": 0,
      "byteOffset": 3420,
      "componentType": 5125,
      "count": 36,
      "type": "SCALAR"
    },
    {
      "bufferView": 2,
      "byteOffset": 12168,
      "componentType": 5126,
      "count": 134,
      "max": [
        -1.0073238611221313,
        0.5400453805923462,
        1.0
      ],
      "min": [
        -6.684800624847412,
        -3.2379589080810547,
        -0.9999999403953552
      ],
      "type": "VEC3"
    },
    {
      "bufferView": 2,
      "byteOffset": 13776,
      "componentType": 5126,
      "count": 134,
      "max": [
        1.0,
        1.0,
        1.0
      ],
      "min": [
        -1.0,
        -0.9999750256538391,
        -1.0
      ],
      "type": "VEC3"
    },
    {
      "bufferView": 1,
      "byteOffset": 4056,
      "componentType": 5126,
      "count": 134,
      "max": [
        0.875,
        1.0
      ],
      "min": [
        0.125,
        0.0
      ],
      "type": "VEC2"
    },
    {
      "bufferView": 0,
      "byteOffset": 3564,
      "componentType": 5125,
      "count": 228,
      "type": "SCALAR"
    },
    {
      "bufferView": 2,
      "byteOffset": 15384,
      "componentType": 5126,
      "count": 744,
      "max": [
        0.8712770938873291,
        23.872291564941406,
        1.0000072717666626
      ],
      "min": [
        -4.869908332824707,
        -6.114889144897461,
        -1.0000004768371582
      ],
      "type": "VEC3"
    },
    {
      "bufferView": 2,
      "byteOffset": 24312,
      "componentType": 5126,
      "count": 744,
      "max": [
        1.0,
        1.0,
        1.0
      ],
      "min": [
        -1.0,
        -1.0,
        -1.0
      ],
      "type": "VEC3"
    },
    {
      "bufferView": 1,
      "byteOffset": 5128,
      "componentType": 5126,
      "count": 744,
      "max": [
        1.0,
        1.0
      ],
      "min": [
        0.0,
        0.01000000536441803
      ],
      "type": "VEC2"
    },
    {
      "bufferView": 0,
      "byteOffset": 4476,
      "componentType": 5125,
      "count": 1458,
      "type": "SCALAR"
    },
    {
      "bufferView": 2,
      "byteOffset": 33240,
      "componentType": 5126,
      "count": 145,
      "max": [
        1.2776250839233398,
        21.541582107543945,
        1.4077212810516357
      ],
      "min": [
        -3.891944408416748,
        -0.6342353820800781,
        -1.4077202081680298
      ],
      "type": "VEC3"
    },
    {
      "bufferView": 2,
      "byteOffset": 34980,
      "componentType": 5126,
      "count": 145,
      "max": [
        0.998746931552887,
        1.0,
        1.0
      ],
      "min": [
        -0.6871928572654724,
        -1.0,
        -1.0
      ],
      "type": "VEC3"
    },
    {
      "bufferView": 1,
      "byteOffset": 11080,
      "componentType": 5126,
      "count": 145,
      "max": [
        0.875,
        1.0
      ],
      "min": [
        0.125,
        0.0
      ],
      "type": "VEC2"
    },
    {
      "bufferView": 0,
      "byteOffset": 10308,
      "componentType": 5125,
      "count": 261,
      "type": "SCALAR"
    },
    {
      "bufferView": 2,
      "byteOffset": 36720,
      "componentType": 5126,
      "count": 208,
      "max": [
        0.4620879292488098,
        4.040533065795898,
        1.0000001192092896
      ],
      "min": [
        -0.4620878994464874,
        -3.9981651306152344,
        -1.0000001192092896
      ],
      "type": "VEC3"
    },
    {
      "bufferView": 2,
      "byteOffset": 39216,
      "componentType": 5126,
      "count": 208,
      "max": [
        1.0,
        1.0,
        1.0
      ],
      "min": [
        -1.0,
        -1.0,
        -1.0
      ],
      "type": "VEC3"
    },
    {
      "bufferView": 1,
      "byteOffset": 12240,
      "componentType": 5126,
      "count": 208,
      "max": [
        0.9900000095367432,
        0.5246952176094055
      ],
      "min": [
        0.12374003231525421,
        0.0792817547917366
      ],
      "type": "VEC2"
    },
    {
      "bufferView": 0,
      "byteOffset": 11352,
      "componentType": 5125,
      "count": 396,
      "type": "SCALAR"
    },
    {
      "bufferView": 2,
      "byteOffset": 41712,
      "componentType": 5126,
      "count": 164,
      "max": [
        1.1477742195129395,
        -0.5902611613273621,
        1.1477742195129395
      ],
      "min": [
        -1.1477742195129395,
        -1.0000001192092896,
        -1.1477742195129395
      ],
      "type": "VEC3"
    },
    {
      "bufferView": 2,
      "byteOffset": 43680,
      "componentType": 5126,
      "count": 164,
      "max": [
        0.9238798022270203,
        1.0,
        0.9238796830177307
      ],
      "min": [
        -0.9238797426223755,
        -1.0,
        -0.9238796830177307
      ],
      "type": "VEC3"
    },
    {
      "bufferView": 1,
      "byteOffset": 13904,
      "componentType": 5126,
      "count": 164,
      "max": [
        1.0,
        0.75
      ],
      "min": [
        0.0,
        0.01000000536441803
      ],
      "type": "VEC2"
    },
    {
      "bufferView": 0,
      "byteOffset": 12936,
      "componentType": 5125,
      "count": 258,
      "type": "SCALAR"
    },
    {
      "bufferView": 2,
      "byteOffset": 45648,
      "componentType": 5126,
      "count": 120,
      "max": [
        0.9999999403953552,
        1.0,
        0.9999999403953552
      ],
      "min": [
        -0.9999999403953552,
        -0.5902611613273621,
        -0.9999999403953552
      ],
      "type": "VEC3"
    },
    {
      "bufferView": 2,
      "byteOffset": 47088,
      "componentType": 5126,
      "count": 120,
      "max": [
        0.9238796234130859,
        1.0,
        0.9238911271095276
      ],
      "min": [
        -0.9238795638084412,
        0.0,
        -0.9238852858543396
      ],
      "type": "VEC3"
    },
    {
      "bufferView": 1,
      "byteOffset": 15216,
      "componentType": 5126,
      "count": 120,
      "max": [
        1.0,
        1.0
      ],
      "min": [
        0.0,
        0.01000000536441803
      ],
      "type": "VEC2"
    },
    {
      "bufferView": 0,
      "byteOffset": 13968,
      "componentType": 5125,
      "count": 192,
      "type": "SCALAR"
    },
    {
      "bufferView": 2,
      "byteOffset": 48528,
      "componentType": 5126,
      "count": 162,
      "max": [
        1.1477742195129395,
        -0.5902611017227173,
        1.1477742195129395
      ],
      "min": [
        -1.1477742195129395,
        -1.0000001192092896,
        -1.1477742195129395
      ],
      "type": "VEC3"
    },
    {
      "bufferView": 2,
      "byteOffset": 50472,
      "componentType": 5126,
      "count": 162,
      "max": [
        0.9238796234130859,
        1.0,
        0.9238795638084412
      ],
      "min": [
        -0.9238797426223755,
        -1.0,
        -0.9238796234130859
      ],
      "type": "VEC3"
    },
    {
      "bufferView": 1,
      "byteOffset": 16176,
      "componentType": 5126,
      "count": 162,
      "max": [
        1.0,
        0.75
      ],
      "min": [
        0.0,
        0.01000000536441803
      ],
      "type": "VEC2"
    },
    {
      "bufferView": 0,
      "byteOffset": 14736,
      "componentType": 5125,
      "count": 258,
      "type": "SCALAR"
    },
    {
      "bufferView": 2,
      "byteOffset": 52416,
      "componentType": 5126,
      "count": 100,
      "max": [
        0.9999999403953552,
        1.0000001192092896,
        0.9999998807907104
      ],
      "min": [
        -0.9999998807907104,
        -0.5902611017227173,
        -0.9999998807907104
      ],
      "type": "VEC3"
    },
    {
      "bufferView": 2,
      "byteOffset": 53616,
      "componentType": 5126,
      "count": 100,
      "max": [
        0.9238795638084412,
        1.0,
        0.923891007900238
      ],
      "min": [
        -0.9238796234130859,
        0.0,
        -0.9238853454589844
      ],
      "type": "VEC3"
    },
    {
      "bufferView": 1,
      "byteOffset": 17472,
      "componentType": 5126,
      "count": 100,
      "max": [
        1.0,
        1.0
      ],
      "min": [
        0.0,
        0.01000000536441803
      ],
      "type": "VEC2"
    },
    {
      "bufferView": 0,
      "byteOffset": 15768,
      "componentType": 5125,
      "count": 162,
      "type": "SCALAR"
    },
    {
      "bufferView": 2,
      "byteOffset": 54816,
      "componentType": 5126,
      "count": 160,
      "max": [
        1.0,
        0.8983539342880249,
        1.0
      ],
      "min": [
        -9.566831588745117,
        -1.5823482275009155,
        -1.0
      ],
      "type": "VEC3"
    },
    {
      "bufferView": 2,
      "byteOffset": 56736,
      "componentType": 5126,
      "count": 160,
      "max": [
        1.0,
        1.0,
        1.0
      ],
      "min": [
        -1.0,
        -0.999758780002594,
        -1.0
      ],
      "type": "VEC3"
    },
    {
      "bufferView": 1,
      "byteOffset": 18272,
      "componentType": 5126,
      "count": 160,
      "max": [
        1.0,
        1.0000004768371582
      ],
      "min": [
        0.0,
        0.01000000536441803
      ],
      "type": "VEC2"
    },
    {
      "bufferView": 0,
      "byteOffset": 16416,
      "componentType": 5125,
      "count": 288,
      "type": "SCALAR"
    }
  ],
  "asset": {
    "extras": {
      "author": "D.U. (https://sketchfab.com/D.U.)",
      "license": "CC-BY-4.0 (http://creativecommons.org/licenses/by/4.0/)",
      "source": "https://sketchfab.com/3d-models/low-poly-sawed-off-shotgun-07cf4898893e48c09c994d134e3387d1",
      "title": "low-poly Sawed-Off Shotgun"
    },
    "generator": "Sketchfab-15.30.0",
    "version": "2.0"
  },
  "bufferViews": [
    {
      "buffer": 0,
      "byteLength": 17568,
      "name": "floatBufferViews",
      "target": 34963
    },
    {
      "buffer": 0,
      "byteLength": 19552,
      "byteOffset": 17568,
      "byteStride": 8,
      "name": "floatBufferViews",
      "target": 34962
    },
    {
      "buffer": 0,
      "byteLength": 58656,
      "byteOffset": 37120,
      "byteStride": 12,
      "name": "floatBufferViews",
      "target": 34962
    }
  ],
  "buffers": [
    {
      "byteLength": 95776,
      "uri": "scene.bin"
    }
  ],
  "materials": [
    {
      "doubleSided": true,
      "name": "1b.001",
      "pbrMetallicRoughness": {
        "baseColorFactor": [
          0.031896,
          0.031896,
          0.031896,
          1.0
        ],
        "roughnessFactor": 0.3
      }
    },
    {
      "doubleSided": true,
      "name": "1w.001",
      "pbrMetallicRoughness": {
        "roughnessFactor": 0.3
      }
    },
    {
      "doubleSided": true,
      "name": "2b.001",
      "pbrMetallicRoughness": {
        "baseColorFactor": [
          0.0,
          0.0,
          0.0,
          1.0
        ],
        "metallicFactor": 0.0,
        "roughnessFactor": 0.7
      }
    },
    {
      "doubleSided": true,
      "name": "blt.001",
      "pbrMetallicRoughness": {
        "baseColorFactor": [
          0.450786,
          0.21586,
          0.0,
          1.0
        ],
        "roughnessFactor": 0.3
      }
    },
    {
      "doubleSided": true,
      "name": "material",
      "pbrMetallicRoughness": {
        "baseColorFactor": [
          0.496923,
          0.0,
          0.0,
          1.0
        ],
        "metallicFactor": 0.0,
        "roughnessFactor": 0.6
      }
    }
  ],
  "meshes": [
    {
      "name": "Object_0",
      "primitives": [
        {
          "attributes": {
            "NORMAL": 1,
            "POSITION": 0,
            "TEXCOORD_0": 2
          },
          "indices": 3,
          "material": 0,
          "mode": 4
        }
      ]
    },
    {
      "name": "Object_1",
      "primitives": [
        {
          "attributes": {
            "NORMAL": 5,
            "POSITION": 4,
            "TEXCOORD_0": 6
          },
          "indices": 7,
          "material": 1,
          "mode": 4
        }
      ]
    },
    {
      "name": "Object_2",
      "primitives": [
        {
          "attributes": {
            "NORMAL": 9,
            "POSITION": 8,
            "TEXCOORD_0": 10
          },
          "indices": 11,
          "material": 2,
          "mode": 4
        }
      ]
    },
    {
      "name": "Object_3",
      "primitives": [
        {
          "attributes": {
            "NORMAL": 13,
            "POSITION": 12,
            "TEXCOORD_0": 14
          },
          "indices": 15,
          "material": 0,
          "mode": 4
        }
      ]
    },
    {
      "name": "Object_4",
      "primitives": [
        {
          "attributes": {
            "NORMAL": 17,
            "POSITION": 16,
            "TEXCOORD_0": 18
          },
          "indices": 19,
          "material": 2,
          "mode": 4
        }
      ]
    },
    {
      "name": "Object_5",
      "primitives": [
        {
          "attributes": {
            "NORMAL": 21,
            "POSITION": 20,
            "TEXCOORD_0": 22
          },
          "indices": 23,
          "material": 1,
          "mode": 4
        }
      ]
    },
    {
      "name": "Object_6",
      "primitives": [
        {
          "attributes": {
            "NORMAL": 25,
            "POSITION": 24,
            "TEXCOORD_0": 26
          },
          "indices": 27,
          "material": 3,
          "mode": 4
        }
      ]
    },
    {
      "name": "Object_7",
      "primitives": [
        {
          "attributes": {
            "NORMAL": 29,
            "POSITION": 28,
            "TEXCOORD_0": 30
          },
          "indices": 31,
          "material": 4,
          "mode": 4
        }
      ]
    },
    {
      "name": "Object_8",
      "primitives": [
        {
          "attributes": {
            "NORMAL": 33,
            "POSITION": 32,
            "TEXCOORD_0": 34
          },
          "indices": 35,
          "material": 3,
          "mode": 4
        }
      ]
    },
    {
      "name": "Object_9",
      "primitives": [
        {
          "attributes": {
            "NORMAL": 37,
            "POSITION": 36,
            "TEXCOORD_0": 38
          },
          "indices": 39,
          "material": 4,
          "mode": 4
        }
      ]
    },
    {
      "name": "Object_10",
      "primitives": [
        {
          "attributes": {
            "NORMAL": 41,
            "POSITION": 40,
            "TEXCOORD_0": 42
          },
          "indices": 43,
          "material": 0,
          "mode": 4
        }
      ]
    }
  ],
  "nodes": [
    {
      "children": [
        1
      ],
      "matrix": [
        1.0,
        0.0,
        0.0,
        0.0,
        0.0,
        2.220446049250313e-16,
        -1.0,
        0.0,
        0.0,
        1.0,
        2.220446049250313e-16,
        0.0,
        0.0,
        0.0,
        0.0,
        1.0
      ],
      "name": "Sketchfab_model"
    },
    {
      "children": [
        2
      ],
      "name": "root"
    },
    {
      "children": [
        3,
        7,
        12,
        15,
        18
      ],
      "matrix": [
        1.0,
        0.0,
        0.0,
        0.0,
        0.0,
        2.220446049250313e-16,
        1.0,
        0.0,
        0.0,
        -1.0,
        2.220446049250313e-16,
        0.0,
        0.0,
        0.0,
        0.0,
        1.0
      ],
      "name": "GLTF_SceneRootNode"
    },
    {
      "children": [
        4,
        5,
        6
      ],
      "matrix": [
        -0.3993060588836624,
        0.0,
        -6.029353881546637e-08,
        0.0,
        0.0,
        0.399306058883667,
        0.0,
        0.0,
        2.3666802314101432e-08,
        0.0,
        -0.15673814713954745,
        0.0,
        0.5774733424186707,
        0.3582455813884735,
        0.0,
        1.0
      ],
      "name": "Cube_0"
    },
    {
      "mesh": 0,
      "name": "Object_4"
    },
    {
      "mesh": 1,
      "name": "Object_5"
    },
    {
      "mesh": 2,
      "name": "Object_6"
    },
    {
      "children": [
        8,
        9,
        10
      ],
      "matrix": [
        1.1287980120106197e-08,
        -0.13391250371932897,
        -1.0110112592303325e-08,
        0.0,
        -0.12134845554828566,
        -1.0228909339872519e-08,
        -9.161554133003882e-09,
        0.0,
        1.0110112592303325e-08,
        1.0110113444522107e-08,
        -0.13391250371932906,
        0.0,
        -0.16455823183059692,
        0.07240855693817139,
        0.0,
        1.0
      ],
      "name": "Cylinder_2"
    },
    {
      "mesh": 3,
      "name": "Object_8"
    },
    {
      "mesh": 4,
      "name": "Object_9"
    },
    {
      "children": [
        11
      ],
      "matrix": [
        1.0,
        0.0,
        0.0,
        0.0,
        0.0,
        1.0,
        0.0,
        0.0,
        0.0,
        0.0,
        1.0,
        0.0,
        -2.8712804317474365,
        -2.1167190074920654,
        0.0,
        1.0
      ],
      "name": "Cylinder.001_1"
    },
    {
      "mesh": 5,
      "name": "Object_11"
    },
    {
      "children": [
        13,
        14
      ],
      "matrix": [
        1.685874004428342e-08,
        -0.10000000149011459,
        4.371139186178342e-09,
        0.0,
        -0.37999999523162264,
        -6.406320969256934e-08,
        1.6610331251824633e-08,
        0.0,
        -4.371139186178342e-09,
        -4.3711399230973814e-09,
        -0.10000000149011594,
        0.0,
        0.26962965726852417,
        0.5416443347930908,
        0.4000000059604645,
        1.0
      ],
      "name": "Cylinder.003_3"
    },
    {
      "mesh": 6,
      "name": "Object_13"
    },
    {
      "mesh": 7,
      "name": "Object_14"
    },
    {
      "children": [
        16,
        17
      ],
      "matrix": [
        1.6858739944363348e-08,
        0.10000000149011469,
        0.0,
        0.0,
        -0.379999995231623,
        6.406321003007714e-08,
        0.0,
        0.0,
        0.0,
        0.0,
        0.10000000149011612,
        0.0,
        0.26962965726852417,
        0.24164429306983948,
        0.4000000059604645,
        1.0
      ],
      "name": "Cylinder.004_4"
    },
    {
      "mesh": 8,
      "name": "Object_16"
    },
    {
      "mesh": 9,
      "name": "Object_17"
    },
    {
      "children": [
        19
      ],
      "matrix": [
        -0.07093024253845133,
        0.0,
        -1.071016889560535e-08,
        0.0,
        0.0,
        0.07093024253845215,
        0.0,
        0.0,
        1.071016889560535e-08,
        0.0,
        -0.07093024253845133,
        0.0,
        1.0735623836517334,
        0.6169817447662354,
        0.0,
        1.0
      ],
      "name": "Cylinder.005_5"
    },
    {
      "mesh": 10,
      "name": "Object_19"
    }
  ],
  "scene": 0,
  "scenes": [
    {
      "name": "Sketchfab_Scene",
      "nodes": [
        0
      ]
    }
  ]
}
